<svg xmlns="http://www.w3.org/2000/svg" xmlns:xlink="http://www.w3.org/1999/xlink" viewBox="0 0 24 24"><path fill="#fff" d="M18.95 3H5.05A2.04 2.04 0 003 5.04v13.91A2.04 2.04 0 005.05 21h13.9A2.05 2.05 0 0021 18.96V5.03A2.05 2.05 0 0018.95 3zM6.68 17.73a1.64 1.64 0 111.64-1.64 1.64 1.64 0 01-1.64 1.64zm0-4.1A1.64 1.64 0 118.32 12a1.64 1.64 0 01-1.64 1.64zm0-4.08A1.64 1.64 0 118.32 7.9a1.64 1.64 0 01-1.64 1.64zm11.86 6.77a1 1 0 01-1 1h-6.59a1 1 0 01-1-1v-.46a1 1 0 011-1h6.6a1 1 0 011 1zm0-4.1a1 1 0 01-1 1h-6.59a1 1 0 01-1-1v-.45a1 1 0 011-1h6.6a1 1 0 011 1zm0-4.08a1 1 0 01-1 1h-6.59a1 1 0 01-1-1v-.46a1 1 0 011-1h6.6a1 1 0 011 1z"></path></svg>
