<svg xmlns="http://www.w3.org/2000/svg" xmlns:xlink="http://www.w3.org/1999/xlink" viewBox="0 0 720 240"><defs><path id="c" d="M2.04 2.2l.17-.16a6.98 6.98 0 019.86 0l.1.1a6.95 6.95 0 010 9.84l-.17.17a6.98 6.98 0 01-9.86 0l-.1-.1a6.95 6.95 0 010-9.84m80.08 0l.17-.17a6.98 6.98 0 019.86 0l.1.1a6.95 6.95 0 010 9.84l-.17.17a6.98 6.98 0 01-9.86 0l-.1-.1a6.95 6.95 0 010-9.84"/></defs><defs><path id="a" d="M2 0h716a2 2 0 012 2v238H0V2a2 2 0 012-2z"/></defs><g fill="none" fill-rule="evenodd"><mask id="b" fill="#fff"><use xlink:href="#a"/></mask><use fill="#D8D8D8" fill-rule="nonzero" xlink:href="#a"/><g fill="#000" fill-opacity=".1" mask="url(#b)" opacity=".5"><g transform="rotate(-45 579.82 -548.6)"><rect width="67.17" height="14.19" rx="5.5"/><use xlink:href="#c"/></g></g><g fill="#000" fill-opacity=".1" mask="url(#b)" opacity=".5"><g transform="rotate(-45 343.41 -187.64)"><rect width="67.17" height="14.19" rx="5.5"/><use xlink:href="#c"/></g></g><g fill="#000" fill-opacity=".1" mask="url(#b)" opacity=".5"><g transform="rotate(-45 447.1 -437.95)"><rect width="67.17" height="14.19" rx="5.5"/><use xlink:href="#c"/></g></g><path fill="#000" fill-opacity=".1" d="M-15.61 218.88l49.66.04a5.5 5.5 0 015.5 5.5v3.2a5.5 5.5 0 01-5.5 5.5l-49.67-.04a5.5 5.5 0 01-5.5-5.5v-3.2a5.5 5.5 0 015.5-5.5z" mask="url(#b)" opacity=".5" transform="rotate(-45 9.22 226)"/><path fill="#000" fill-opacity=".1" d="M-48.25 74.88l76.76.06a5.5 5.5 0 015.5 5.5v3.2a5.5 5.5 0 01-5.5 5.5l-76.77-.06a5.5 5.5 0 01-5.5-5.5v-3.2a5.5 5.5 0 015.5-5.5z" mask="url(#b)" opacity=".5" transform="rotate(-45 -9.87 82.01)"/><path fill="#000" fill-opacity=".1" d="M166.79 13.44l76.76.06a5.5 5.5 0 015.5 5.5v3.2a5.5 5.5 0 01-5.5 5.5l-76.77-.06a5.5 5.5 0 01-5.5-5.5v-3.2a5.5 5.5 0 015.5-5.5z" mask="url(#b)" opacity=".5" transform="rotate(-45 205.17 20.57)"/><g fill="#000" fill-opacity=".1" mask="url(#b)" opacity=".5"><path d="M435.44 68.3l-22.86 23.64a5.5 5.5 0 01-7.77.14l-2.3-2.22a5.5 5.5 0 01-.14-7.78l22.86-23.64a5.5 5.5 0 017.77-.14l2.3 2.22a5.5 5.5 0 01.14 7.79zm-32.29 30.21v.24c.07 3.84-3 7.01-6.84 7.08h-.14c-3.85.07-7.03-2.99-7.1-6.83v-.24a6.96 6.96 0 016.85-7.08h.14a6.96 6.96 0 017.09 6.83"/></g><g fill="#000" fill-opacity=".1" mask="url(#b)" opacity=".5"><path d="M158.96 125.9l-22.86 23.64a5.5 5.5 0 01-7.77.14l-2.3-2.22a5.5 5.5 0 01-.14-7.79l22.86-23.63a5.5 5.5 0 017.77-.14l2.3 2.22a5.5 5.5 0 01.14 7.79zm-32.29 30.21v.24c.07 3.85-3 7.01-6.84 7.08h-.14c-3.85.07-7.03-2.99-7.1-6.83v-.24a6.96 6.96 0 016.85-7.08h.14a6.96 6.96 0 017.09 6.83"/></g><g fill="#000" fill-opacity=".1" mask="url(#b)" opacity=".5"><path d="M667.76 66.39L644.9 90.02a5.5 5.5 0 01-7.77.14l-2.3-2.22a5.5 5.5 0 01-.14-7.78l22.86-23.64a5.5 5.5 0 017.77-.14l2.3 2.22a5.5 5.5 0 01.14 7.79zm-32.29 30.2v.24c.07 3.84-3 7.01-6.84 7.08h-.14c-3.85.07-7.03-2.99-7.1-6.83v-.24a6.96 6.96 0 016.85-7.08h.14a6.96 6.96 0 017.09 6.83"/></g></g></svg>