<svg xmlns="http://www.w3.org/2000/svg" xmlns:xlink="http://www.w3.org/1999/xlink" viewBox="0 0 100 100" style="fill:#e3e3e3"><path d="M100 50A50 50 0 110 50a50 50 0 01100 0"></path><g fill="#FFF"><path d="M61 43.7a4.9 4.9 0 00-5 5c0 2.6 2.3 4.8 5 4.8s4.9-2.2 4.9-4.9-2.2-4.9-5-4.9"></path><path d="M69.7 55.8l-.1 1.8a3.9 3.9 0 01-3.2.6c-1.6-.5-3.1-1.4-4.3-2.5l-4.1 4c2.5 2.5 5.7 4.2 9.4 4.7-3 5.3-8.8 9-15.3 9H34.5V49.5a44 44 0 0029.4-17.2c1.5 1 2.8 2.2 3.7 3.5 1.3 2.5 2 5.3 2 8.3v11.6zM52 20.8H28.6v58.4h23.5c13 0 23.4-10.5 23.4-23.4V44.2a23.4 23.4 0 00-23.4-23.4z"></path></g><path fill="none" d="M20.8 20.8h58.3v58.3H20.8z"></path></svg>
