<svg xmlns="http://www.w3.org/2000/svg" viewBox="0 0 24 24" width="24" height="24" style="fill: rgba(0, 0, 0, 0.2);"><path class="link_svg__a" d="M17 7h-3a1 1 0 00-1 1 1 1 0 001 1h3a3 3 0 013 3 3 3 0 01-3 3h-3a1 1 0 00-1 1 1 1 0 001 1h3a5.006 5.006 0 005-5 5.006 5.006 0 00-5-5zM10 15H7a3 3 0 01-3-3 3 3 0 013-3h3a1 1 0 001-1 1 1 0 00-1-1H7a5.006 5.006 0 00-5 5 5.006 5.006 0 005 5h3a1 1 0 001-1 1 1 0 00-1-1z"></path><path class="link_svg__a" d="M8 12a1 1 0 001 1h6a1 1 0 001-1 1 1 0 00-1-1H9a1 1 0 00-1 1z"></path></svg>
