<svg xmlns="http://www.w3.org/2000/svg" xmlns:xlink="http://www.w3.org/1999/xlink" viewBox="0 0 723 272"><defs><path id="a" d="M216 270H0V0h216z"/><path id="c" d="M108.312 207.975v-207h-108v207z"/></defs><g fill="none" fill-rule="evenodd"><path d="M146.313 104.458c-12.424 0-22.5 10.072-22.5 22.491 0 12.42 10.075 22.492 22.5 22.492 12.424 0 22.5-10.072 22.5-22.492 0-12.419-10.076-22.491-22.5-22.491" fill="#FFF"/><g transform="translate(1 1)"><mask id="b" fill="#fff"><use xlink:href="#a"/></mask><path d="M189 162.025c0 2.805-.145 5.572-.423 8.303-2.943 2.088-6.494 3.371-10.378 3.371-1.461 0-2.861-.227-4.224-.554a49.594 49.594 0 01-19.755-11.974l-19.107 19.107c11.484 11.407 26.595 19.11 43.42 21.423-13.91 24.617-40.289 41.3-70.533 41.3H27V133.216c55.35-7.376 103.576-37.152 135.409-79.86 7.025 4.872 12.911 10.497 17.028 16.523A80.394 80.394 0 01189 107.972v54.053zM108 0H0v270h108c59.647 0 108-48.349 108-107.975v-54.053C216 48.342 167.661 0 108 0z" fill="#FFF" mask="url(#b)"/></g><path d="M281.2 180.95c0-11.155 6.857-18.004 26.98-18.004 13.413 0 26.902 0 44.966 9.003v-.004s.143-26.99 0-26.99c-14.745-8.997-35.982-9.01-54.037-9.01-31.476 0-44.89 18.002-44.89 40.5-.022 26.974 0 27.002 0 27.002s-.022-.078 0 27c0 22.5 13.414 40.498 44.89 40.498 18.055 0 39.292-.013 54.037-9.004.143 0 0-26.995 0-26.995v-.005c-18.064 9.004-31.553 9.004-44.967 9.004-20.122 0-26.98-6.843-26.98-18.005v-44.99zm180.113 62.997h-36s-15.832.413-15.75-13.5c-.082-13.915 15.998-18.08 51.75-18v31.5zm-18-108c-18.063 0-39.316.014-54.077 9.005-.144 0 0 26.995 0 26.995v.005c18.077-9.006 31.577-9.006 45-9.006 20.137 0 27.077 6.85 27.077 18.004v8.996c-42.98-.058-81 9.001-81 40.5 0 31.5 18 40.501 45 40.501h63v-67.5l-.077-27c0-22.5-13.423-40.5-44.923-40.5zm74.255 22.499v22.5h-.005v90.001h27v-90h-.043v-4.509c0-14.725 44.93-17.992 44.93-17.992s.254-22.499 0-22.499c-58.388 0-71.882 22.5-71.882 22.5" fill="#FFF"/><g transform="translate(614 63)"><mask id="d" fill="#fff"><use xlink:href="#c"/></mask><path d="M81.313 180.884h-27s-27 .916-27-26.981c0-27.896-1.328-46.647 10.584-54.924 11.916-8.275 43.416.944 43.416.944v80.96zm0-179.908h-9c8.814 28.555 8.995 74.544 9 76.402-1.63-.527-14.486-4.44-36-4.44-14.978 0-44.857.71-45 44.976 0 0 .018 13.633 0 22.49.03 2.443.053 2.76.072 2.16.048-11.44.048-1.76 0 0-.019 3.916-.041 10.27-.073 20.329.145 49.473 45 44.976 45 44.976h63V.976h-27z" fill="#FFF" mask="url(#d)"/></g></g></svg>