<svg xmlns="http://www.w3.org/2000/svg" xmlns:xlink="http://www.w3.org/1999/xlink" viewBox="0 0 24 24"><path fill="#fff" d="M19.5 14.5a7.5 7.5 0 01-15 0 12.9 12.9 0 012.21-7.25l.02-.03a.18.18 0 01.04-.05.5.5 0 01.31-.15.51.51 0 01.55.46A3.36 3.36 0 0010.9 10a3.26 3.26 0 003.2-3.5 16.5 16.5 0 00-.32-2.9 1.63 1.63 0 01-.04-.19V3.4a.5.5 0 01.49-.5.51.51 0 01.28.08.45.45 0 01.1.09A15.95 15.95 0 0119.5 14.5zm-3.59-1.55a12.97 12.97 0 00-.22-1.32.5.5 0 00-.83-.27 7.93 7.93 0 01-3.73 1.77 2.94 2.94 0 00-2.63 2.93c0 2.55 3.3 4.32 5.95 1.5a5.75 5.75 0 001.46-4.6z"></path></svg>
