<svg xmlns="http://www.w3.org/2000/svg" xmlns:xlink="http://www.w3.org/1999/xlink" viewBox="0 0 18 18"><path fill="rgba(255, 255, 255, 0.35)" d="M16.8 9a7.5 7.5 0 01-7.5 7.5A7.5 7.5 0 011.8 9a7.5 7.5 0 017.5-7.5A7.5 7.5 0 0116.8 9zm-6.44 0l2.47-2.47a.75.75 0 000-1.06.75.75 0 00-1.06 0L9.3 7.94 6.83 5.47a.75.75 0 00-1.06 0 .75.75 0 000 1.06L8.24 9l-2.47 2.47a.75.75 0 000 1.06.75.75 0 00.53.22.75.75 0 00.53-.22l2.47-2.47 2.47 2.47a.75.75 0 00.53.22.75.75 0 00.53-.22.75.75 0 000-1.06z"></path></svg>
